<svg xmlns="http://www.w3.org/2000/svg" viewBox="0 0 64 64" role="img" aria-label="Chromosome Designs">
  <defs>
    <linearGradient id="g" x1="0" y1="0" x2="1" y2="1">
      <stop offset="0%" stop-color="#F4C842"/>
      <stop offset="55%" stop-color="#E8B11E"/>
      <stop offset="100%" stop-color="#A77F0E"/>
    </linearGradient>
  </defs>
  <rect width="64" height="64" rx="10" fill="#0A0A0B"/>
  <g fill="url(#g)" stroke="#0A0A0B" stroke-width="0.6">
    <!-- Chromosome X-form: two paired chromatids meeting at a centromere -->
    <path d="M16 12 C 22 18, 28 24, 32 32 C 28 24, 22 18, 16 12 Z M14 18 C 22 22, 28 26, 32 32 C 24 30, 18 26, 14 18 Z"/>
    <path d="M48 12 C 42 18, 36 24, 32 32 C 36 24, 42 18, 48 12 Z M50 18 C 42 22, 36 26, 32 32 C 40 30, 46 26, 50 18 Z"/>
    <path d="M16 52 C 22 46, 28 40, 32 32 C 28 40, 22 46, 16 52 Z M14 46 C 22 42, 28 38, 32 32 C 24 34, 18 38, 14 46 Z"/>
    <path d="M48 52 C 42 46, 36 40, 32 32 C 36 40, 42 46, 48 52 Z M50 46 C 42 42, 36 38, 32 32 C 40 34, 46 38, 50 46 Z"/>
    <circle cx="32" cy="32" r="3"/>
  </g>
</svg>
